<svg width="81" height="29" viewBox="0 0 81 29" fill="none" xmlns="http://www.w3.org/2000/svg">
<path d="M18.08 0.919999H22.07V21.68H18.08V0.919999ZM20.93 9.38H25.76V12.65H20.93V9.38ZM0.2 3.8H16.55V6.92H0.2V3.8ZM8.39 7.91C12.38 7.91 15.2 10.1 15.2 13.28C15.2 16.46 12.38 18.62 8.39 18.62C4.37 18.62 1.55 16.46 1.55 13.28C1.55 10.1 4.37 7.91 8.39 7.91ZM8.39 10.94C6.62 10.94 5.39 11.78 5.39 13.28C5.39 14.78 6.62 15.59 8.39 15.59C10.16 15.59 11.39 14.78 11.39 13.28C11.39 11.78 10.16 10.94 8.39 10.94ZM6.38 0.859998H10.37V5.33H6.38V0.859998ZM4.16 25.01H23.06V28.19H4.16V25.01ZM4.16 20.12H8.15V26.39H4.16V20.12ZM34.3077 2.15H37.6077V4.82C37.6077 10.07 35.0577 14.84 29.6277 16.58L27.6777 13.43C32.3577 11.93 34.3077 8.33 34.3077 4.82V2.15ZM35.1177 2.15H38.3877V4.82C38.3877 8.24 40.3077 11.6 44.8377 12.98L42.8877 16.1C37.5777 14.42 35.1177 9.98 35.1177 4.82V2.15ZM31.9377 18.68H50.8977V28.67H46.8777V21.86H31.9377V18.68ZM46.8777 0.89H50.8977V17.45H46.8777V0.89ZM58.2753 2.51H75.7053V5.66H58.2753V2.51ZM55.4253 14.33H80.5353V17.54H55.4253V14.33ZM65.8353 16.58H69.8553V28.7H65.8353V16.58ZM73.6653 2.51H77.5953V4.97C77.5953 7.97 77.5953 11.33 76.5153 16.25L72.5853 15.8C73.6653 11.15 73.6653 7.85 73.6653 4.97V2.51Z" fill="#45BC53"/>
</svg>
