<svg width="272" height="150" viewBox="0 0 272 150" fill="none" xmlns="http://www.w3.org/2000/svg">
<path d="M2.34375 48V11.6364H12.2159V25.8409H25.2841V11.6364H35.1562V48H25.2841V33.7955H12.2159V48H2.34375ZM61.3636 11.6364H71.2358V34.9318C71.2358 37.7017 70.5729 40.0987 69.2472 42.1229C67.9332 44.1352 66.0985 45.6918 63.7429 46.7926C61.3873 47.8816 58.6529 48.4261 55.5398 48.4261C52.4029 48.4261 49.6567 47.8816 47.3011 46.7926C44.9455 45.6918 43.1108 44.1352 41.7969 42.1229C40.4948 40.0987 39.8438 37.7017 39.8438 34.9318V11.6364H49.7159V34.0795C49.7159 35.2041 49.9645 36.2102 50.4616 37.098C50.9588 37.974 51.6454 38.6605 52.5213 39.1577C53.4091 39.6548 54.4152 39.9034 55.5398 39.9034C56.6761 39.9034 57.6823 39.6548 58.5582 39.1577C59.4342 38.6605 60.1207 37.974 60.6179 37.098C61.1151 36.2102 61.3636 35.2041 61.3636 34.0795V11.6364ZM75.9277 48V11.6364H101.496V19.5909H85.7999V25.8409H99.9334V33.7955H85.7999V48H75.9277ZM260.569 23C260.474 21.8163 260.03 20.893 259.237 20.2301C258.456 19.5672 257.267 19.2358 255.669 19.2358C254.651 19.2358 253.816 19.3601 253.165 19.6087C252.526 19.8454 252.052 20.1709 251.744 20.5852C251.437 20.9995 251.277 21.473 251.265 22.0057C251.241 22.4437 251.318 22.8402 251.496 23.1953C251.685 23.5386 251.981 23.8523 252.384 24.1364C252.786 24.4086 253.301 24.6572 253.928 24.8821C254.556 25.107 255.302 25.3082 256.166 25.4858L259.149 26.125C261.161 26.5511 262.883 27.1134 264.316 27.8118C265.748 28.5102 266.92 29.3329 267.831 30.2798C268.743 31.215 269.411 32.2685 269.838 33.4403C270.276 34.6122 270.5 35.8906 270.512 37.2756C270.5 39.6667 269.903 41.6908 268.719 43.348C267.535 45.0052 265.843 46.2659 263.641 47.13C261.451 47.9941 258.817 48.4261 255.74 48.4261C252.579 48.4261 249.821 47.9586 247.465 47.0234C245.122 46.0883 243.299 44.6501 241.997 42.7088C240.706 40.7557 240.055 38.258 240.044 35.2159H249.419C249.478 36.3286 249.756 37.2637 250.253 38.0213C250.75 38.7789 251.449 39.353 252.348 39.7436C253.26 40.1342 254.343 40.3295 255.597 40.3295C256.651 40.3295 257.533 40.1993 258.243 39.9389C258.953 39.6785 259.492 39.3175 259.859 38.8558C260.226 38.3942 260.415 37.8674 260.427 37.2756C260.415 36.7192 260.232 36.2339 259.877 35.8196C259.533 35.3935 258.965 35.0147 258.172 34.6832C257.379 34.34 256.308 34.0204 254.958 33.7244L251.336 32.9432C248.116 32.2448 245.577 31.0788 243.719 29.4453C241.872 27.8 240.955 25.5568 240.967 22.7159C240.955 20.4077 241.57 18.3894 242.813 16.6612C244.068 14.9212 245.802 13.5658 248.016 12.5952C250.241 11.6245 252.792 11.1392 255.669 11.1392C258.604 11.1392 261.143 11.6304 263.286 12.6129C265.428 13.5954 267.079 14.9804 268.24 16.7678C269.411 18.5433 270.003 20.6207 270.015 23H260.569Z" fill="#45BC53"/>
<path d="M112.282 48.4261C110.542 48.4261 109.004 48.142 107.666 47.5739C106.34 46.9938 105.299 46.1179 104.541 44.946C103.783 43.7741 103.405 42.2827 103.405 40.4716C103.405 38.9801 103.659 37.7076 104.168 36.6541C104.677 35.5888 105.387 34.7188 106.299 34.044C107.21 33.3693 108.27 32.8544 109.477 32.4993C110.696 32.1442 112.01 31.9134 113.419 31.8068C114.946 31.6884 116.171 31.5464 117.094 31.3807C118.029 31.2031 118.704 30.9605 119.118 30.6527C119.533 30.3331 119.74 29.9129 119.74 29.392V29.321C119.74 28.6108 119.468 28.0663 118.923 27.6875C118.379 27.3087 117.68 27.1193 116.828 27.1193C115.893 27.1193 115.129 27.3265 114.537 27.7408C113.957 28.1432 113.608 28.7647 113.49 29.6051H104.47C104.588 27.9479 105.115 26.4209 106.05 25.0241C106.997 23.6155 108.376 22.491 110.187 21.6506C111.998 20.7983 114.259 20.3722 116.97 20.3722C118.923 20.3722 120.675 20.603 122.226 21.0646C123.776 21.5144 125.096 22.1477 126.185 22.9645C127.274 23.7694 128.103 24.7164 128.671 25.8054C129.251 26.8826 129.541 28.0545 129.541 29.321V48H120.379V44.1648H120.166C119.622 45.1828 118.959 46.0054 118.177 46.6328C117.408 47.2602 116.526 47.7159 115.532 48C114.549 48.2841 113.466 48.4261 112.282 48.4261ZM115.479 42.2472C116.224 42.2472 116.923 42.0933 117.574 41.7855C118.237 41.4777 118.775 41.0339 119.189 40.4538C119.604 39.8738 119.811 39.1695 119.811 38.3409V36.0682C119.55 36.1747 119.272 36.2753 118.976 36.37C118.692 36.4647 118.385 36.5535 118.053 36.6364C117.733 36.7192 117.39 36.7962 117.023 36.8672C116.668 36.9382 116.295 37.0033 115.905 37.0625C115.147 37.1809 114.526 37.3762 114.04 37.6484C113.567 37.9089 113.212 38.2344 112.975 38.625C112.75 39.0038 112.638 39.4299 112.638 39.9034C112.638 40.661 112.904 41.241 113.437 41.6435C113.969 42.0459 114.65 42.2472 115.479 42.2472ZM134.224 48V20.7273H143.528V25.9119H143.812C144.38 24.2074 145.351 22.858 146.724 21.8636C148.097 20.8693 149.731 20.3722 151.625 20.3722C153.542 20.3722 155.194 20.8812 156.578 21.8991C157.963 22.9053 158.798 24.2429 159.082 25.9119H159.366C159.828 24.2429 160.81 22.9053 162.314 21.8991C163.817 20.8812 165.581 20.3722 167.605 20.3722C170.221 20.3722 172.34 21.2126 173.961 22.8935C175.595 24.5743 176.412 26.8116 176.412 29.6051V48H166.61V32.0909C166.61 30.8954 166.309 29.9602 165.705 29.2855C165.101 28.599 164.29 28.2557 163.272 28.2557C162.266 28.2557 161.467 28.599 160.875 29.2855C160.295 29.9602 160.005 30.8954 160.005 32.0909V48H150.63V32.0909C150.63 30.8954 150.328 29.9602 149.725 29.2855C149.121 28.599 148.31 28.2557 147.292 28.2557C146.618 28.2557 146.038 28.4096 145.552 28.7173C145.067 29.0251 144.688 29.469 144.416 30.049C144.155 30.6172 144.025 31.2978 144.025 32.0909V48H134.224ZM181.246 48V20.7273H191.047V48H181.246ZM186.146 17.8864C184.82 17.8864 183.684 17.4484 182.737 16.5724C181.79 15.6965 181.317 14.643 181.317 13.4119C181.317 12.1809 181.79 11.1274 182.737 10.2514C183.684 9.37547 184.82 8.9375 186.146 8.9375C187.484 8.9375 188.62 9.37547 189.555 10.2514C190.502 11.1274 190.976 12.1809 190.976 13.4119C190.976 14.643 190.502 15.6965 189.555 16.5724C188.62 17.4484 187.484 17.8864 186.146 17.8864ZM205.842 11.6364V48H196.04V11.6364H205.842ZM216.801 58.2273C215.677 58.2273 214.606 58.1385 213.588 57.9609C212.57 57.7952 211.676 57.5644 210.906 57.2685L213.037 50.3082C213.842 50.5923 214.576 50.7758 215.239 50.8587C215.914 50.9415 216.488 50.8942 216.961 50.7166C217.446 50.5391 217.796 50.2017 218.009 49.7045L218.222 49.2074L208.634 20.7273H218.861L223.264 39.6193H223.548L228.023 20.7273H238.321L228.378 50.2727C227.881 51.776 227.159 53.1255 226.212 54.321C225.277 55.5284 224.046 56.4813 222.519 57.1797C220.992 57.8781 219.086 58.2273 216.801 58.2273Z" fill="#878787"/>
<path d="M15.9 63.1H19.225V80.4H15.9V63.1ZM18.275 70.15H22.3V72.875H18.275V70.15ZM1 65.5H14.625V68.1H1V65.5ZM7.825 68.925C11.15 68.925 13.5 70.75 13.5 73.4C13.5 76.05 11.15 77.85 7.825 77.85C4.475 77.85 2.125 76.05 2.125 73.4C2.125 70.75 4.475 68.925 7.825 68.925ZM7.825 71.45C6.35 71.45 5.325 72.15 5.325 73.4C5.325 74.65 6.35 75.325 7.825 75.325C9.3 75.325 10.325 74.65 10.325 73.4C10.325 72.15 9.3 71.45 7.825 71.45ZM6.15 63.05H9.475V66.775H6.15V63.05ZM4.3 83.175H20.05V85.825H4.3V83.175ZM4.3 79.1H7.625V84.325H4.3V79.1ZM6.425 94.125H9.175V96.35C9.175 100.725 7.05 104.7 2.525 106.15L0.9 103.525C4.8 102.275 6.425 99.275 6.425 96.35V94.125ZM7.1 94.125H9.825V96.35C9.825 99.2 11.425 102 15.2 103.15L13.575 105.75C9.15 104.35 7.1 100.65 7.1 96.35V94.125ZM4.45 107.9H20.25V116.225H16.9V110.55H4.45V107.9ZM16.9 93.075H20.25V106.875H16.9V93.075ZM3.4 124.425H17.925V127.05H3.4V124.425ZM1.025 134.275H21.95V136.95H1.025V134.275ZM9.7 136.15H13.05V146.25H9.7V136.15ZM16.225 124.425H19.5V126.475C19.5 128.975 19.5 131.775 18.6 135.875L15.325 135.5C16.225 131.625 16.225 128.875 16.225 126.475V124.425Z" fill="#45BC53"/>
<path d="M29.198 64.85H31.898V68.225C31.898 73.95 29.898 79.325 25.523 81.475L23.523 78.8C27.423 76.975 29.198 72.525 29.198 68.225V64.85ZM29.873 64.85H32.523V68.225C32.523 72.375 34.173 76.6 37.873 78.4L35.873 81.05C31.698 78.925 29.873 73.775 29.873 68.225V64.85ZM38.798 63.075H42.148V86.225H38.798V63.075ZM41.398 71.975H45.498V74.75H41.398V71.975ZM61.8961 63.1H65.2211V76.825H61.8961V63.1ZM64.2711 68.525H68.2961V71.275H64.2711V68.525ZM50.1461 77.825H65.2211V85.975H50.1461V77.825ZM61.9711 80.425H53.4211V83.35H61.9711V80.425ZM47.8211 73.325H49.7711C54.3211 73.325 57.1211 73.25 60.3211 72.65L60.6211 75.275C57.3711 75.9 54.4461 76.025 49.7711 76.025H47.8211V73.325ZM47.7961 64.225H58.3711V71.275H51.1211V74.8H47.8211V68.8H55.0961V66.875H47.7961V64.225ZM77.4441 64.6C81.0941 64.6 83.8191 66.975 83.8191 70.3C83.8191 73.65 81.0941 76.025 77.4441 76.025C73.8191 76.025 71.0441 73.65 71.0441 70.3C71.0441 66.975 73.8191 64.6 77.4441 64.6ZM77.4441 67.45C75.6691 67.45 74.3191 68.5 74.3191 70.3C74.3191 72.125 75.6691 73.175 77.4441 73.175C79.2191 73.175 80.5691 72.125 80.5691 70.3C80.5691 68.5 79.2191 67.45 77.4441 67.45ZM85.9941 63.05H89.3191V86.275H85.9941V63.05ZM70.4941 81.575L70.0941 78.9C74.1691 78.9 79.8441 78.85 84.7191 78.125L84.9691 80.525C79.9441 81.525 74.4941 81.575 70.4941 81.575ZM29.323 106.575H32.573V112.025H29.323V106.575ZM36.648 106.55H39.898V112.025H36.648V106.55ZM24.023 110.975H44.973V113.675H24.023V110.975ZM26.373 94.575H42.623V102.25H29.723V106.175H26.423V99.65H39.323V97.2H26.373V94.575ZM26.423 104.775H43.148V107.45H26.423V104.775ZM55.7961 105.8H59.1211V109.325H55.7961V105.8ZM46.9961 103.9H67.9211V106.525H46.9961V103.9ZM48.8211 93.7H66.0711V96.35H48.8211V93.7ZM48.9961 99.825H65.8961V102.475H48.9961V99.825ZM51.7711 94.675H55.0961V101.55H51.7711V94.675ZM59.7961 94.675H63.1211V101.55H59.7961V94.675ZM49.4211 108.45H65.4211V115.975H49.4211V108.45ZM62.1711 111.025H52.6961V113.35H62.1711V111.025ZM85.3246 107.475C90.3246 107.475 93.5246 109.125 93.5246 111.875C93.5246 114.575 90.3246 116.225 85.3246 116.225C80.3246 116.225 77.1246 114.575 77.1246 111.875C77.1246 109.125 80.3246 107.475 85.3246 107.475ZM85.3246 109.975C82.1996 109.975 80.4246 110.625 80.4246 111.875C80.4246 113.1 82.1996 113.725 85.3246 113.725C88.4496 113.725 90.2246 113.1 90.2246 111.875C90.2246 110.625 88.4496 109.975 85.3246 109.975ZM77.3746 94.1H92.0246V96.725H77.3746V94.1ZM75.0246 103.4H95.8746V106.05H75.0246V103.4ZM82.7496 99.375H86.0496V104.075H82.7496V99.375ZM90.0996 94.1H93.3996V96C93.3996 97.825 93.3996 99.8 92.7746 102.2L89.4746 101.85C90.0996 99.475 90.0996 97.8 90.0996 96V94.1ZM97.9977 103.95H118.948V106.6H97.9977V103.95ZM106.823 100.475H110.123V104.975H106.823V100.475ZM100.523 99.425H116.573V102.05H100.523V99.425ZM100.523 94.075H116.448V96.675H103.823V101.1H100.523V94.075ZM108.398 107.75C113.398 107.75 116.423 109.275 116.423 112C116.423 114.725 113.398 116.25 108.398 116.25C103.398 116.25 100.348 114.725 100.348 112C100.348 109.275 103.398 107.75 108.398 107.75ZM108.398 110.25C105.298 110.25 103.723 110.825 103.723 112C103.723 113.2 105.298 113.725 108.398 113.725C111.498 113.725 113.073 113.2 113.073 112C113.073 110.825 111.498 110.25 108.398 110.25ZM40.723 123.075H43.898V146.225H40.723V123.075ZM37.948 131.9H41.773V134.575H37.948V131.9ZM35.648 123.425H38.773V145.175H35.648V123.425ZM24.648 125.45H33.798V140.45H24.648V125.45ZM30.698 128.05H27.748V137.85H30.698V128.05Z" fill="#878787"/>
</svg>
