<svg width="269" height="51" viewBox="0 0 269 51" fill="none" xmlns="http://www.w3.org/2000/svg">
<path d="M0.34375 40V3.63636H10.2159V17.8409H23.2841V3.63636H33.1562V40H23.2841V25.7955H10.2159V40H0.34375ZM59.3636 3.63636H69.2358V26.9318C69.2358 29.7017 68.5729 32.0987 67.2472 34.1229C65.9332 36.1352 64.0985 37.6918 61.7429 38.7926C59.3873 39.8816 56.6529 40.4261 53.5398 40.4261C50.4029 40.4261 47.6567 39.8816 45.3011 38.7926C42.9455 37.6918 41.1108 36.1352 39.7969 34.1229C38.4948 32.0987 37.8438 29.7017 37.8438 26.9318V3.63636H47.7159V26.0795C47.7159 27.2041 47.9645 28.2102 48.4616 29.098C48.9588 29.974 49.6454 30.6605 50.5213 31.1577C51.4091 31.6548 52.4152 31.9034 53.5398 31.9034C54.6761 31.9034 55.6823 31.6548 56.5582 31.1577C57.4342 30.6605 58.1207 29.974 58.6179 29.098C59.1151 28.2102 59.3636 27.2041 59.3636 26.0795V3.63636ZM73.9277 40V3.63636H99.4959V11.5909H83.7999V17.8409H97.9334V25.7955H83.7999V40H73.9277ZM258.569 15C258.474 13.8163 258.03 12.893 257.237 12.2301C256.456 11.5672 255.267 11.2358 253.669 11.2358C252.651 11.2358 251.816 11.3601 251.165 11.6087C250.526 11.8454 250.052 12.1709 249.744 12.5852C249.437 12.9995 249.277 13.473 249.265 14.0057C249.241 14.4437 249.318 14.8402 249.496 15.1953C249.685 15.5386 249.981 15.8523 250.384 16.1364C250.786 16.4086 251.301 16.6572 251.928 16.8821C252.556 17.107 253.302 17.3082 254.166 17.4858L257.149 18.125C259.161 18.5511 260.883 19.1134 262.316 19.8118C263.748 20.5102 264.92 21.3329 265.831 22.2798C266.743 23.215 267.411 24.2685 267.838 25.4403C268.276 26.6122 268.5 27.8906 268.512 29.2756C268.5 31.6667 267.903 33.6908 266.719 35.348C265.535 37.0052 263.843 38.2659 261.641 39.13C259.451 39.9941 256.817 40.4261 253.74 40.4261C250.579 40.4261 247.821 39.9586 245.465 39.0234C243.122 38.0883 241.299 36.6501 239.997 34.7088C238.706 32.7557 238.055 30.258 238.044 27.2159H247.419C247.478 28.3286 247.756 29.2637 248.253 30.0213C248.75 30.7789 249.449 31.353 250.348 31.7436C251.26 32.1342 252.343 32.3295 253.597 32.3295C254.651 32.3295 255.533 32.1993 256.243 31.9389C256.953 31.6785 257.492 31.3175 257.859 30.8558C258.226 30.3942 258.415 29.8674 258.427 29.2756C258.415 28.7192 258.232 28.2339 257.877 27.8196C257.533 27.3935 256.965 27.0147 256.172 26.6832C255.379 26.34 254.308 26.0204 252.958 25.7244L249.336 24.9432C246.116 24.2448 243.577 23.0788 241.719 21.4453C239.872 19.8 238.955 17.5568 238.967 14.7159C238.955 12.4077 239.57 10.3894 240.813 8.66122C242.068 6.92116 243.802 5.56581 246.016 4.59517C248.241 3.62453 250.792 3.1392 253.669 3.1392C256.604 3.1392 259.143 3.63044 261.286 4.61293C263.428 5.59541 265.079 6.98035 266.24 8.76776C267.411 10.5433 268.003 12.6207 268.015 15H258.569Z" fill="#45BC53"/>
<path d="M110.282 40.4261C108.542 40.4261 107.004 40.142 105.666 39.5739C104.34 38.9938 103.299 38.1179 102.541 36.946C101.783 35.7741 101.405 34.2827 101.405 32.4716C101.405 30.9801 101.659 29.7076 102.168 28.6541C102.677 27.5888 103.387 26.7188 104.299 26.044C105.21 25.3693 106.27 24.8544 107.477 24.4993C108.696 24.1442 110.01 23.9134 111.419 23.8068C112.946 23.6884 114.171 23.5464 115.094 23.3807C116.029 23.2031 116.704 22.9605 117.118 22.6527C117.533 22.3331 117.74 21.9129 117.74 21.392V21.321C117.74 20.6108 117.468 20.0663 116.923 19.6875C116.379 19.3087 115.68 19.1193 114.828 19.1193C113.893 19.1193 113.129 19.3265 112.537 19.7408C111.957 20.1432 111.608 20.7647 111.49 21.6051H102.47C102.588 19.9479 103.115 18.4209 104.05 17.0241C104.997 15.6155 106.376 14.491 108.187 13.6506C109.998 12.7983 112.259 12.3722 114.97 12.3722C116.923 12.3722 118.675 12.603 120.226 13.0646C121.776 13.5144 123.096 14.1477 124.185 14.9645C125.274 15.7694 126.103 16.7164 126.671 17.8054C127.251 18.8826 127.541 20.0545 127.541 21.321V40H118.379V36.1648H118.166C117.622 37.1828 116.959 38.0054 116.177 38.6328C115.408 39.2602 114.526 39.7159 113.532 40C112.549 40.2841 111.466 40.4261 110.282 40.4261ZM113.479 34.2472C114.224 34.2472 114.923 34.0933 115.574 33.7855C116.237 33.4777 116.775 33.0339 117.189 32.4538C117.604 31.8738 117.811 31.1695 117.811 30.3409V28.0682C117.55 28.1747 117.272 28.2753 116.976 28.37C116.692 28.4647 116.385 28.5535 116.053 28.6364C115.733 28.7192 115.39 28.7962 115.023 28.8672C114.668 28.9382 114.295 29.0033 113.905 29.0625C113.147 29.1809 112.526 29.3762 112.04 29.6484C111.567 29.9089 111.212 30.2344 110.975 30.625C110.75 31.0038 110.638 31.4299 110.638 31.9034C110.638 32.661 110.904 33.241 111.437 33.6435C111.969 34.0459 112.65 34.2472 113.479 34.2472ZM132.224 40V12.7273H141.528V17.9119H141.812C142.38 16.2074 143.351 14.858 144.724 13.8636C146.097 12.8693 147.731 12.3722 149.625 12.3722C151.542 12.3722 153.194 12.8812 154.578 13.8991C155.963 14.9053 156.798 16.2429 157.082 17.9119H157.366C157.828 16.2429 158.81 14.9053 160.314 13.8991C161.817 12.8812 163.581 12.3722 165.605 12.3722C168.221 12.3722 170.34 13.2126 171.961 14.8935C173.595 16.5743 174.412 18.8116 174.412 21.6051V40H164.61V24.0909C164.61 22.8954 164.309 21.9602 163.705 21.2855C163.101 20.599 162.29 20.2557 161.272 20.2557C160.266 20.2557 159.467 20.599 158.875 21.2855C158.295 21.9602 158.005 22.8954 158.005 24.0909V40H148.63V24.0909C148.63 22.8954 148.328 21.9602 147.725 21.2855C147.121 20.599 146.31 20.2557 145.292 20.2557C144.618 20.2557 144.038 20.4096 143.552 20.7173C143.067 21.0251 142.688 21.469 142.416 22.049C142.155 22.6172 142.025 23.2978 142.025 24.0909V40H132.224ZM179.246 40V12.7273H189.047V40H179.246ZM184.146 9.88636C182.82 9.88636 181.684 9.44839 180.737 8.57244C179.79 7.6965 179.317 6.64299 179.317 5.41193C179.317 4.18087 179.79 3.12737 180.737 2.25142C181.684 1.37547 182.82 0.9375 184.146 0.9375C185.484 0.9375 186.62 1.37547 187.555 2.25142C188.502 3.12737 188.976 4.18087 188.976 5.41193C188.976 6.64299 188.502 7.6965 187.555 8.57244C186.62 9.44839 185.484 9.88636 184.146 9.88636ZM203.842 3.63636V40H194.04V3.63636H203.842ZM214.801 50.2273C213.677 50.2273 212.606 50.1385 211.588 49.9609C210.57 49.7952 209.676 49.5644 208.906 49.2685L211.037 42.3082C211.842 42.5923 212.576 42.7758 213.239 42.8587C213.914 42.9415 214.488 42.8942 214.961 42.7166C215.446 42.5391 215.796 42.2017 216.009 41.7045L216.222 41.2074L206.634 12.7273H216.861L221.264 31.6193H221.548L226.023 12.7273H236.321L226.378 42.2727C225.881 43.776 225.159 45.1255 224.212 46.321C223.277 47.5284 222.046 48.4813 220.519 49.1797C218.992 49.8781 217.086 50.2273 214.801 50.2273Z" fill="#878787"/>
</svg>
